<svg width="32" height="32" viewBox="0 0 32 32" fill="none" xmlns="http://www.w3.org/2000/svg">
  <!-- Background circle with Philippine flag blue -->
  <circle cx="16" cy="16" r="15" fill="#0038A8"/>
  
  <!-- Philippine sun (simplified) -->
  <circle cx="16" cy="16" r="8" fill="#FCD116"/>
  
  <!-- Sun rays -->
  <g transform="translate(16, 16)">
    <line x1="0" y1="-12" x2="0" y2="-10" stroke="#FCD116" stroke-width="1.5"/>
    <line x1="8.49" y1="-8.49" x2="7.07" y2="-7.07" stroke="#FCD116" stroke-width="1.5"/>
    <line x1="12" y1="0" x2="10" y2="0" stroke="#FCD116" stroke-width="1.5"/>
    <line x1="8.49" y1="8.49" x2="7.07" y2="7.07" stroke="#FCD116" stroke-width="1.5"/>
    <line x1="0" y1="12" x2="0" y2="10" stroke="#FCD116" stroke-width="1.5"/>
    <line x1="-8.49" y1="8.49" x2="-7.07" y2="7.07" stroke="#FCD116" stroke-width="1.5"/>
    <line x1="-12" y1="0" x2="-10" y2="0" stroke="#FCD116" stroke-width="1.5"/>
    <line x1="-8.49" y1="-8.49" x2="-7.07" y2="-7.07" stroke="#FCD116" stroke-width="1.5"/>
  </g>
  
  <!-- Government building in center -->
  <rect x="12" y="14" width="8" height="6" fill="#0038A8" rx="1"/>
  <rect x="13" y="12" width="6" height="3" fill="#0038A8" rx="0.5"/>
  
  <!-- Pillars -->
  <rect x="13" y="15" width="0.8" height="4" fill="#FCD116"/>
  <rect x="15" y="15" width="0.8" height="4" fill="#FCD116"/>
  <rect x="17" y="15" width="0.8" height="4" fill="#FCD116"/>
  <rect x="19" y="15" width="0.8" height="4" fill="#FCD116"/>
</svg>